<?xml version="1.0" encoding="UTF-8" standalone="no"?>
<!-- Created with Inkscape (http://www.inkscape.org/) -->

<svg
   width="32"
   version="1.1"
   height="32"
   viewBox="0 0 32 32"
   id="svg42"
   sodipodi:docname="applications-engineering.svg"
   inkscape:version="1.2.2 (b0a8486541, 2022-12-01)"
   xmlns:inkscape="http://www.inkscape.org/namespaces/inkscape"
   xmlns:sodipodi="http://sodipodi.sourceforge.net/DTD/sodipodi-0.dtd"
   xmlns:xlink="http://www.w3.org/1999/xlink"
   xmlns="http://www.w3.org/2000/svg"
   xmlns:svg="http://www.w3.org/2000/svg">
  <sodipodi:namedview
     id="namedview44"
     pagecolor="#ffffff"
     bordercolor="#000000"
     borderopacity="0.25"
     inkscape:showpageshadow="2"
     inkscape:pageopacity="0.0"
     inkscape:pagecheckerboard="0"
     inkscape:deskcolor="#d1d1d1"
     showgrid="false"
     inkscape:zoom="10.429825"
     inkscape:cx="18.456686"
     inkscape:cy="24.688813"
     inkscape:window-width="1920"
     inkscape:window-height="1002"
     inkscape:window-x="0"
     inkscape:window-y="0"
     inkscape:window-maximized="1"
     inkscape:current-layer="layer1" />
  <defs
     id="defs5455">
    <linearGradient
       inkscape:collect="always"
       id="linearGradient4430">
      <stop
         style="stop-color:#404245"
         id="stop4432" />
      <stop
         offset="1"
         style="stop-color:#585d60"
         id="stop4434" />
    </linearGradient>
    <linearGradient
       inkscape:collect="always"
       xlink:href="#linearGradient4400"
       id="linearGradient4244"
       y1="521.79803"
       x1="397.57144"
       y2="537.79797"
       x2="413.57141"
       gradientUnits="userSpaceOnUse"
       gradientTransform="matrix(1 0 0 1 -384.57143 -512.798)" />
    <linearGradient
       inkscape:collect="always"
       xlink:href="#linearGradient4159"
       id="linearGradient4191"
       y1="525.79797"
       y2="527.79797"
       x2="0"
       gradientUnits="userSpaceOnUse"
       gradientTransform="matrix(1 0 0 1 -0.000012 3)" />
    <linearGradient
       inkscape:collect="always"
       id="linearGradient4159">
      <stop
         style="stop-color:#2a2c2f"
         id="stop4161" />
      <stop
         offset="1"
         style="stop-color:#424649"
         id="stop4163" />
    </linearGradient>
    <linearGradient
       inkscape:collect="always"
       xlink:href="#linearGradient4430"
       id="linearGradient4329"
       y1="28"
       x1="15"
       y2="8"
       x2="14"
       gradientUnits="userSpaceOnUse"
       gradientTransform="translate(384.57143,516.398)" />
    <linearGradient
       inkscape:collect="always"
       id="linearGradient4400">
      <stop
         style="stop-color:#020303"
         id="stop4402" />
      <stop
         offset="1"
         style="stop-color:#424649;stop-opacity:0"
         id="stop4404" />
    </linearGradient>
    <linearGradient
       inkscape:collect="always"
       id="linearGradient4303">
      <stop
         style="stop-color:#989a9b"
         id="stop4305" />
      <stop
         offset="1"
         style="stop-color:#f6f6f7"
         id="stop4307" />
    </linearGradient>
    <linearGradient
       inkscape:collect="always"
       xlink:href="#linearGradient4303"
       id="linearGradient4556"
       y1="25"
       y2="6.00003"
       x2="0"
       gradientUnits="userSpaceOnUse"
       gradientTransform="matrix(1 0 0 1 384.57143 518.798)" />
    <linearGradient
       inkscape:collect="always"
       xlink:href="#linearGradient4430"
       id="linearGradient4583"
       y1="26"
       y2="6"
       x2="0"
       gradientUnits="userSpaceOnUse"
       gradientTransform="translate(384.57143,518.398)" />
    <linearGradient
       inkscape:collect="always"
       id="linearGradient4303-6">
      <stop
         style="stop-color:#c6cdd1"
         id="stop4305-7" />
      <stop
         offset="1"
         style="stop-color:#e0e5e7"
         id="stop4307-0" />
    </linearGradient>
    <linearGradient
       inkscape:collect="always"
       id="linearGradient4643-8"
       xlink:href="#linearGradient4303-6"
       y1="543.79797"
       y2="502.65509"
       x2="0"
       gradientUnits="userSpaceOnUse"
       gradientTransform="matrix(0.66666726,0,0,0.61249904,128.19014,210.92156)" />
    <linearGradient
       inkscape:collect="always"
       xlink:href="#linearGradient4159"
       id="linearGradient4251"
       y1="543.79797"
       y2="523.79797"
       x2="0"
       gradientUnits="userSpaceOnUse"
       gradientTransform="translate(0,0.60011573)" />
  </defs>
  <metadata
     id="metadata5458" />
  <g
     inkscape:label="Capa 1"
     inkscape:groupmode="layer"
     id="layer1"
     transform="matrix(1 0 0 1 -384.57143 -515.798)">
    <rect
       width="32"
       x="384.57144"
       y="518.79797"
       rx="2.3168533"
       height="27"
       style="fill:url(#linearGradient4643-8);stroke-width:0.981981"
       id="rect4641-5"
       ry="2.655468" />
    <rect
       width="30"
       x="385.57141"
       y="524.39801"
       height="20.000031"
       style="fill:url(#linearGradient4251)"
       id="rect4653-5"
       ry="1.5041069"
       rx="1.6681011" />
    <rect
       width="2"
       x="412.57144"
       y="519.89801"
       rx="1"
       height="2"
       style="fill:#050505;fill-opacity:1"
       id="rect4661-1" />
    <path
       style="fill:url(#linearGradient4244);opacity:0.2;fill-rule:evenodd"
       id="path4236"
       d="M 17 9 L 12.556641 27.755859 L 14.800781 30 L 30 30 L 30 22 L 17 9 z "
       transform="matrix(1 0 0 1 384.57143 515.798)" />
    <path
       inkscape:connector-curvature="0"
       style="fill:url(#linearGradient4329);stroke-width:0.1;stroke-linecap:square"
       id="rect4315"
       d="m 392.57143,524.398 v 3 h -7 v 1 h 7 v 12 h -7 v 1 h 7 v 3 h 1 v -3 h 14 v 3 h 1 v -3 h 7 v -1 h -7 v -12 h 7 v -1 h -7 v -3 h -1 v 3 h -14 v -3 z m 1,4 h 14 v 12 h -14 z" />
    <path
       inkscape:connector-curvature="0"
       style="fill:url(#linearGradient4583);stroke-width:0.1;stroke-linecap:square"
       id="path4560"
       d="m 395.35463,524.398 c -1.80297,4.02093 -5.45494,6.90882 -9.7832,7.73633 v 1.02734 c 4.89017,-0.86425 8.99793,-4.17094 10.88672,-8.76367 z m 20.2168,11.23633 c -4.88797,0.86609 -8.99315,4.17249 -10.88086,8.76367 h 1.10352 c 1.80182,-4.01944 5.45128,-6.90707 9.77734,-7.73633 z" />
    <path
       inkscape:connector-curvature="0"
       style="fill:url(#linearGradient4556);stroke-linecap:square;stroke-width:0.1"
       id="rect4530"
       d="m 399.57143,524.798 0,2.17383 a 3,3 0 0 0 -2,2.82617 3,3 0 0 0 1.52539,2.60937 l -1.44336,5.39063 -1.08203,0 0,1 0.81445,0 -0.80859,3.01562 0.57227,1.71875 1.26953,-4.73437 4.30273,0 1.26758,4.73437 0.57226,-1.71875 -0.80859,-3.01562 0.81836,0 0,-1 -1.08594,0 -1.44336,-5.38867 a 3,3 0 0 0 1.5293,-2.61133 3,3 0 0 0 -2,-2.82422 l 0,-2.17578 -2,0 z m 0.46875,7.94922 a 3,3 0 0 0 0.53125,0.0508 3,3 0 0 0 0.5293,-0.0469 l 1.35156,5.04688 -3.76563,0 1.35352,-5.05078 z" />
    <circle
       cx="400.57144"
       cy="529.79773"
       style="shape-rendering:auto;color-interpolation-filters:linearRGB;fill:url(#linearGradient4191);image-rendering:auto;text-rendering:auto;color:#000000;color-rendering:auto;color-interpolation:sRGB"
       r="1"
       id="path4234" />
    <rect
       width="27.999813"
       x="386.5715"
       y="522.29797"
       height="1"
       style="fill:#3daee9;stroke-width:0.935411"
       id="rect4649-8-3"
       ry="0.5"
       rx="0.66800863" />
  </g>
</svg>
