<?xml version="1.0" encoding="UTF-8" standalone="no"?>
<!-- Created with Inkscape (http://www.inkscape.org/) -->

<svg
   width="32"
   height="32"
   id="svg5453"
   version="1.1"
   inkscape:version="1.2.2 (b0a8486541, 2022-12-01)"
   sodipodi:docname="applications-education-mathematics.svg"
   xmlns:inkscape="http://www.inkscape.org/namespaces/inkscape"
   xmlns:sodipodi="http://sodipodi.sourceforge.net/DTD/sodipodi-0.dtd"
   xmlns:xlink="http://www.w3.org/1999/xlink"
   xmlns="http://www.w3.org/2000/svg"
   xmlns:svg="http://www.w3.org/2000/svg"
   xmlns:rdf="http://www.w3.org/1999/02/22-rdf-syntax-ns#"
   xmlns:cc="http://creativecommons.org/ns#"
   xmlns:dc="http://purl.org/dc/elements/1.1/">
  <defs
     id="defs5455">
    <linearGradient
       gradientUnits="userSpaceOnUse"
       y2="503.798"
       x2="384.57144"
       y1="543.79797"
       x1="434.57144"
       id="linearGradient4586"
       xlink:href="#linearGradient4273"
       inkscape:collect="always"
       gradientTransform="translate(-1.1547241e-5,-1.6784668e-7)" />
    <linearGradient
       inkscape:collect="always"
       id="linearGradient4273">
      <stop
         style="stop-color:#343b40;stop-opacity:1"
         offset="0"
         id="stop4275" />
      <stop
         style="stop-color:#555e63;stop-opacity:1"
         offset="1"
         id="stop4277" />
    </linearGradient>
    <linearGradient
       inkscape:collect="always"
       xlink:href="#linearGradient4273"
       id="linearGradient3085"
       gradientUnits="userSpaceOnUse"
       gradientTransform="matrix(1,0,0,1.050001,-36.00001,-25.190442)"
       x1="434.57144"
       y1="543.79797"
       x2="384.57144"
       y2="503.798" />
    <linearGradient
       inkscape:collect="always"
       xlink:href="#linearGradient4152-0"
       id="linearGradient3087"
       gradientUnits="userSpaceOnUse"
       gradientTransform="matrix(1,0,0,1.0500001,348.57142,499.59799)"
       x1="24"
       y1="43.999973"
       x2="24"
       y2="4" />
    <linearGradient
       id="linearGradient4152-0"
       inkscape:collect="always">
      <stop
         id="stop4154-0"
         offset="0"
         style="stop-color:#bd8d48;stop-opacity:1" />
      <stop
         id="stop4156-8"
         offset="1"
         style="stop-color:#e8b971;stop-opacity:1" />
    </linearGradient>
  </defs>
  <sodipodi:namedview
     id="base"
     pagecolor="#ffffff"
     bordercolor="#666666"
     borderopacity="1.0"
     inkscape:pageopacity="0"
     inkscape:pageshadow="2"
     inkscape:zoom="7.9999995"
     inkscape:cx="-14.687501"
     inkscape:cy="7.3125005"
     inkscape:document-units="px"
     inkscape:current-layer="layer1"
     showgrid="true"
     fit-margin-top="0"
     fit-margin-left="0"
     fit-margin-right="0"
     fit-margin-bottom="0"
     inkscape:window-width="1920"
     inkscape:window-height="1002"
     inkscape:window-x="0"
     inkscape:window-y="0"
     inkscape:window-maximized="1"
     inkscape:showpageshadow="false"
     borderlayer="true"
     showguides="true"
     inkscape:snap-bbox="true"
     inkscape:pagecheckerboard="0"
     inkscape:deskcolor="#d1d1d1">
    <inkscape:grid
       type="xygrid"
       id="grid4063" />
    <sodipodi:guide
       position="4.2167969e-05,32.000026"
       orientation="32,0"
       id="guide4625"
       inkscape:locked="false" />
    <sodipodi:guide
       position="4.2167969e-05,2.6367188e-05"
       orientation="0,31.999969"
       id="guide4627"
       inkscape:locked="false" />
    <sodipodi:guide
       position="32.000012,2.6367188e-05"
       orientation="-32,0"
       id="guide4629"
       inkscape:locked="false" />
    <sodipodi:guide
       position="32.000012,32.000026"
       orientation="0,-31.999969"
       id="guide4631"
       inkscape:locked="false" />
    <sodipodi:guide
       position="2.0000422,30.000026"
       orientation="28,0"
       id="guide4633"
       inkscape:locked="false" />
    <sodipodi:guide
       position="2.0000422,2.0000264"
       orientation="0,27.999969"
       id="guide4635"
       inkscape:locked="false" />
    <sodipodi:guide
       position="30,17"
       orientation="-28,0"
       id="guide4637"
       inkscape:locked="false" />
    <sodipodi:guide
       position="30.000012,30.000026"
       orientation="0,-27.999969"
       id="guide4639"
       inkscape:locked="false" />
    <sodipodi:guide
       position="9.0000117,24.000271"
       orientation="14,0"
       id="guide4429"
       inkscape:locked="false" />
    <sodipodi:guide
       position="9.0000117,10.000271"
       orientation="0,14.000031"
       id="guide4431"
       inkscape:locked="false" />
    <sodipodi:guide
       position="23.000042,10.000271"
       orientation="-14,0"
       id="guide4433"
       inkscape:locked="false" />
    <sodipodi:guide
       position="23.000042,24.000271"
       orientation="0,-14.000031"
       id="guide4435"
       inkscape:locked="false" />
  </sodipodi:namedview>
  <metadata
     id="metadata5458">
    <rdf:RDF>
      <cc:Work
         rdf:about="">
        <dc:format>image/svg+xml</dc:format>
        <dc:type
           rdf:resource="http://purl.org/dc/dcmitype/StillImage" />
      </cc:Work>
    </rdf:RDF>
  </metadata>
  <g
     inkscape:label="Capa 1"
     inkscape:groupmode="layer"
     id="layer1"
     transform="translate(-384.57143,-515.798)">
    <g
       id="g3068"
       transform="matrix(0.66666621,0,0,0.66666621,152.19064,181.9329)">
      <rect
         y="503.798"
         x="348.57144"
         height="42.000034"
         width="48.000011"
         id="rect4567"
         style="fill:url(#linearGradient3085);fill-opacity:1;stroke:none"
         ry="2.9318159"
         rx="2.9999871" />
      <path
         id="rect4778"
         d="m 351.57143,503.798 c -1.50001,0 -2.99999,1.23313 -2.99999,2.93182 l -2e-5,36.0682 c 0,1.5 1.27962,3.00002 3.00001,3 h 42.00002 c 1.34178,2e-5 3,-0.90004 3.00002,-3.15 l -10e-6,-35.85002 c -10e-6,-1.58454 -1.19234,-3 -3.00001,-3 v 0 z m 6e-5,3 h 41.99996 v 36.00002 h -41.99996 z"
         style="fill:url(#linearGradient3087);fill-opacity:1;stroke:none"
         inkscape:connector-curvature="0"
         sodipodi:nodetypes="ccccccccccccccc" />
      <path
         id="rect4553"
         d="m 351.57149,506.72982 v 36.0682 0 h 41.99996 v 0 -36.0682 0 z m 1.49994,1.56818 h 39.00002 v 33.00002 h -39.00002 z"
         style="color:#000000;text-decoration:none;text-decoration-line:none;display:inline;overflow:visible;visibility:visible;fill:#aa7f41;fill-opacity:0.498039;fill-rule:nonzero;stroke:none;enable-background:accumulate"
         inkscape:connector-curvature="0"
         sodipodi:nodetypes="ccccccccccccc" />
    </g>
    <rect
       y="540.50427"
       x="403.65546"
       height="0.99999011"
       width="3.9999604"
       id="rect4568-2"
       style="color:#000000;text-decoration:none;text-decoration-line:none;display:inline;overflow:visible;visibility:visible;fill:#007ad9;fill-opacity:1;fill-rule:nonzero;stroke:none;stroke-width:0.666666;enable-background:accumulate" />
    <rect
       y="540.50427"
       x="408.65543"
       height="1.000008"
       width="3.9999878"
       id="rect4570-8"
       style="color:#000000;text-decoration:none;text-decoration-line:none;display:inline;overflow:visible;visibility:visible;fill:#d6d6d6;fill-opacity:1;fill-rule:nonzero;stroke:none;stroke-width:0.666666;enable-background:accumulate" />
    <path
       d="m 391.35376,537.99005 -0.36811,-0.58323 0.97993,-3.06434 c 0.0654,-0.20615 0.10634,-0.45304 0.1228,-0.74068 0.019,-0.28877 0.0198,-0.52671 0.002,-0.71381 l -0.0206,-0.27855 c -0.14155,-0.31382 -0.33845,-0.51742 -0.5907,-0.61076 -0.2534,-0.0959 -0.54081,-0.0713 -0.86223,0.0736 -0.53656,0.24199 -0.88902,0.58827 -1.0574,1.03883 l -0.47702,-0.47015 c 0.20088,-0.48654 0.63793,-0.88163 1.31116,-1.18526 0.51631,-0.23285 0.99093,-0.27788 1.42388,-0.13506 0.4318,0.14029 0.75329,0.44454 0.96446,0.91276 0.006,0.04 0.0123,0.095 0.0195,0.16482 0.006,0.0674 0.0136,0.20248 0.0229,0.4054 0.0118,0.20178 0.0158,0.39642 0.0121,0.5839 -0.004,0.1875 -0.0209,0.39931 -0.0515,0.63541 -0.028,0.235 -0.0723,0.44074 -0.13279,0.61726 l -0.82987,2.43473 2.6309,-1.18656 0.22193,0.60347 -3.32185,1.49818"
       style="font-style:normal;font-variant:normal;font-weight:normal;font-stretch:normal;font-size:12.7938px;line-height:125%;font-family:Oxygen;-inkscape-font-specification:Oxygen;letter-spacing:0px;word-spacing:0px;fill:#f2f2f2;fill-opacity:1;stroke:none;stroke-width:0.666666"
       id="path3864-9"
       inkscape:connector-curvature="0" />
    <path
       d="m 396.35049,532.45622 1.4806,-0.66776 0.23285,0.51631 -1.48438,0.66947 0.73453,1.62865 -0.52011,0.23458 -0.73453,-1.62866 -1.50716,0.67975 -0.23287,-0.5163 1.51097,-0.68146 -0.72598,-1.60968 0.5201,-0.23457 0.72598,1.60968"
       style="font-style:normal;font-variant:normal;font-weight:normal;font-stretch:normal;font-size:12.7938px;line-height:125%;font-family:Oxygen;-inkscape-font-specification:Oxygen;letter-spacing:0px;word-spacing:0px;fill:#f2f2f2;fill-opacity:1;stroke:none;stroke-width:0.666666"
       id="path3866-7"
       inkscape:connector-curvature="0" />
    <path
       d="m 399.87287,534.14786 -0.36811,-0.58322 0.97994,-3.06435 c 0.0654,-0.20614 0.10633,-0.45304 0.12281,-0.74068 0.019,-0.28877 0.0198,-0.5267 0.002,-0.7138 l -0.0206,-0.27855 c -0.14155,-0.31383 -0.33845,-0.51742 -0.5907,-0.61077 -0.2534,-0.0959 -0.54082,-0.0713 -0.86224,0.0736 -0.53656,0.24199 -0.88902,0.58828 -1.05739,1.03882 l -0.47702,-0.47015 c 0.20088,-0.48653 0.63793,-0.88162 1.31116,-1.18525 0.5163,-0.23285 0.99093,-0.27787 1.42388,-0.13506 0.4318,0.14028 0.75329,0.44454 0.96445,0.91275 0.006,0.04 0.0123,0.095 0.0195,0.16483 0.006,0.0673 0.0137,0.20247 0.0229,0.40539 0.0118,0.20179 0.0158,0.39643 0.0121,0.58391 -0.004,0.1875 -0.0209,0.3993 -0.0515,0.63541 -0.028,0.235 -0.0723,0.44074 -0.13279,0.61726 l -0.82987,2.43472 2.6309,-1.18655 0.22193,0.60347 -3.32185,1.49819"
       style="font-style:normal;font-variant:normal;font-weight:normal;font-stretch:normal;font-size:12.7938px;line-height:125%;font-family:Oxygen;-inkscape-font-specification:Oxygen;letter-spacing:0px;word-spacing:0px;fill:#f2f2f2;fill-opacity:1;stroke:none;stroke-width:0.666666"
       id="path3868-3"
       inkscape:connector-curvature="0" />
    <path
       d="m 403.53629,530.77327 -0.24314,-0.53909 3.66352,-1.65228 0.24313,0.53909 -3.6635,1.65228 m -0.7262,-1.60044 -0.24656,-0.54668 3.66732,-1.65398 0.24656,0.54667 -3.66732,1.65399"
       style="font-style:normal;font-variant:normal;font-weight:normal;font-stretch:normal;font-size:12.7938px;line-height:125%;font-family:Oxygen;-inkscape-font-specification:Oxygen;letter-spacing:0px;word-spacing:0px;fill:#f2f2f2;fill-opacity:1;stroke:none;stroke-width:0.666666"
       id="path3870-6"
       inkscape:connector-curvature="0" />
    <path
       d="m 411.96696,526.99838 -0.64539,0.29107 0.63523,1.40847 -0.63779,0.28765 -0.63523,-1.40847 -2.56636,1.15745 -0.26197,-0.58084 0.82997,-4.81502 0.70992,-0.32018 1.67796,3.72046 0.69854,-0.31504 0.19509,0.57446 m -2.82073,-2.83043 -0.60891,3.71479 1.8982,-0.8561 -1.28929,-2.85869"
       style="font-style:normal;font-variant:normal;font-weight:normal;font-stretch:normal;font-size:12.7938px;line-height:125%;font-family:Oxygen;-inkscape-font-specification:Oxygen;letter-spacing:0px;word-spacing:0px;fill:#f2f2f2;fill-opacity:1;stroke:none;stroke-width:0.666666"
       id="path3872-1"
       inkscape:connector-curvature="0" />
  </g>
</svg>
