<?xml version="1.0" encoding="UTF-8" standalone="no"?>
<svg
   width="32"
   version="1.1"
   height="32"
   viewBox="0 0 32 32"
   id="svg15"
   sodipodi:docname="folder-Relax.svg"
   inkscape:version="1.1.2 (0a00cf5339, 2022-02-04)"
   xmlns:inkscape="http://www.inkscape.org/namespaces/inkscape"
   xmlns:sodipodi="http://sodipodi.sourceforge.net/DTD/sodipodi-0.dtd"
   xmlns:xlink="http://www.w3.org/1999/xlink"
   xmlns="http://www.w3.org/2000/svg"
   xmlns:svg="http://www.w3.org/2000/svg"
   xmlns:rdf="http://www.w3.org/1999/02/22-rdf-syntax-ns#"
   xmlns:cc="http://creativecommons.org/ns#"
   xmlns:dc="http://purl.org/dc/elements/1.1/">
  <sodipodi:namedview
     pagecolor="#ffffff"
     bordercolor="#666666"
     borderopacity="1"
     objecttolerance="10"
     gridtolerance="10"
     guidetolerance="10"
     inkscape:pageopacity="0"
     inkscape:pageshadow="2"
     inkscape:window-width="1920"
     inkscape:window-height="1015"
     id="namedview17"
     showgrid="true"
     inkscape:zoom="9.8125"
     inkscape:cx="1.4267516"
     inkscape:cy="1.7834395"
     inkscape:window-x="0"
     inkscape:window-y="0"
     inkscape:window-maximized="1"
     inkscape:current-layer="g4"
     inkscape:pagecheckerboard="0">
    <inkscape:grid
       type="xygrid"
       id="grid862" />
  </sodipodi:namedview>
  <defs
     id="defs5455">
    <linearGradient
       inkscape:collect="always"
       id="linearGradient2230">
      <stop
         style="stop-color:#4e99ca;stop-opacity:0.80000001"
         offset="0"
         id="stop2226" />
      <stop
         style="stop-color:#20ffff;stop-opacity:0.80000001"
         offset="0.50507295"
         id="stop2332" />
      <stop
         style="stop-color:#ffaeff;stop-opacity:0.69"
         offset="1"
         id="stop2228" />
    </linearGradient>
    <linearGradient
       inkscape:collect="always"
       xlink:href="#linearGradient2230"
       id="linearGradient2232-2"
       x1="384.57144"
       y1="515.79797"
       x2="448.57144"
       y2="515.79797"
       gradientUnits="userSpaceOnUse"
       gradientTransform="matrix(1.3883543,0,0,1.3461633,-465.19049,330.12458)" />
    <linearGradient
       inkscape:collect="always"
       xlink:href="#linearGradient948"
       id="linearGradient876"
       x1="423.30508"
       y1="527.63239"
       x2="443.45984"
       y2="527.63239"
       gradientUnits="userSpaceOnUse"
       gradientTransform="matrix(1.6532308,0,0,1.6029904,-582.11509,192.86495)" />
    <linearGradient
       inkscape:collect="always"
       id="linearGradient948">
      <stop
         style="stop-color:#008080;stop-opacity:1"
         offset="0"
         id="stop942" />
      <stop
         style="stop-color:#20ffff;stop-opacity:0.80000001"
         offset="0.50507295"
         id="stop944" />
      <stop
         style="stop-color:#008080;stop-opacity:1"
         offset="1"
         id="stop946" />
    </linearGradient>
  </defs>
  <metadata
     id="metadata5458">
    <rdf:RDF>
      <cc:Work
         rdf:about="">
        <dc:format>image/svg+xml</dc:format>
        <dc:type
           rdf:resource="http://purl.org/dc/dcmitype/StillImage" />
      </cc:Work>
    </rdf:RDF>
  </metadata>
  <g
     inkscape:label="Capa 1"
     inkscape:groupmode="layer"
     id="layer1"
     transform="translate(-384.57143,-515.798)">
    <g
       transform="matrix(0.36013848,0,0,0.37142583,359.81878,151.2823)"
       id="g4">
      <rect
         style="fill:#626f9d;fill-opacity:0.2;stroke:none;stroke-width:1.72356"
         id="center-3-0"
         width="83.440094"
         height="56.538857"
         x="71.507591"
         y="1000.2419"
         ry="5.3846478"
         rx="5.5626888" />
      <path
         d="m 149.4872,997.56266 h -40.71588 c -0.89989,0 -1.68679,-0.44909 -2.24928,-1.236 l -3.03703,-4.49402 c -1.0121,-1.57302 -2.6996,-2.35999 -4.498587,-2.35999 H 78.178589 c -5.174244,0 -9.447682,4.26992 -9.447682,9.4381 v 52.47245 c 0,4.3821 3.5996,8.09 8.098187,8.09 h 34.979656 v 0 0 0 0 0 0 0 h 2.69899 v 0 0 0 0 0 0 0 0 0 h 34.97965 c 4.38652,0 8.09819,-3.596 8.09819,-8.09 v -45.7308 c 0,-4.494 -3.59879,-8.08917 -8.09819,-8.08917 z m -34.97946,61.91054 v 0 h -2.69899 v 0 0 z m 40.37824,-8.0898 c 0,2.9212 -2.36237,5.3931 -5.39859,5.3931 H 76.828692 c -2.924152,0 -5.398588,-2.4719 -5.398588,-5.3931 l -8e-4,-18.09 v -10.2251 c 0,-2.9212 2.47445,-5.3931 5.398588,-5.3931 h 40.715858 c 1.79978,0 3.48652,-0.899 4.49861,-2.36 l 2.92413,-4.494 c 0.56254,-0.674 1.34946,-1.236 2.2493,-1.236 h 20.9203 c 3.71167,0 6.74889,3.034 6.74889,6.7421 v 14.719 z m -6.74889,-44.3824 h -20.9203 c -1.79978,0 -3.48652,0.8989 -4.49859,2.3599 l -2.92415,4.4941 c -0.44955,0.7869 -1.34945,1.236 -2.24929,1.236 H 76.829178 c -2.024137,0 -3.933639,0.2284 -5.39931,2.2916 v -11.756 c 0,-2.6923 2.85447,-5.3846 5.631179,-5.3846 h 22.213682 l 0.05956,0.062 4.105501,-0.062 5.44383,0.017 h 40.71588 c 2.92414,0 5.39859,2.4719 5.39859,5.3931 v 4.1571 c -1.799,-1.7972 -4.16056,-2.8082 -6.86016,-2.8082 z"
         id="path64-6"
         sodipodi:nodetypes="csccsssssccccccccccccccccccsssccccccccccssccsssccssscccsccscccccccssscc"
         style="fill:url(#linearGradient2232-2);fill-opacity:1;stroke-width:0.200746" />
      <path
         d="m 148.22728,1045.0853 2.79912,-0.7035 -2.94498,-0.4025 0.2028,-0.3692 -1.04918,0.1077 0.18993,-0.2627 -1.7461,0.2332 v -0.3565 l -1.33575,0.363 v -0.405 l -1.12349,0.4107 v -0.4037 l -1.15624,0.6317 v -0.3705 l -1.04242,0.6159 v -0.4762 l -0.41257,0.3764 -0.20619,-0.1497 0.98958,-0.5115 -0.16467,-0.1142 0.91189,-0.3473 -0.28772,-0.1992 1.4801,-0.7491 -0.45324,-0.08 1.11919,-0.6595 -0.3322,-0.1205 0.89764,-0.6483 -0.34755,-0.035 0.60361,-0.4654 -0.29877,-0.1824 0.94466,-0.8841 -0.2685,-0.1303 0.99927,-0.9689 -0.49547,-0.04 0.60362,-0.7524 -0.34011,-0.098 0.73983,-0.9781 -0.32588,-0.07 0.52686,-0.7957 -0.17728,-0.086 0.9957,-0.9652 -0.4853,-0.094 1.56722,-2.6333 -2.54845,1.8448 -7e-4,-0.4625 -0.95257,1.0657 v -0.3146 l -0.9769,0.9472 v -0.3751 l -0.95188,0.9947 v -0.5178 l -0.93811,1.411 -0.11968,-0.4487 -0.69965,1.2477 -0.16252,-0.3413 -0.48352,0.9573 -0.10496,-0.4279 -0.49659,0.8638 v -0.5739 l -1.05259,2.1498 -0.2249,-0.3818 -0.60524,1.5001 -0.11857,-0.2871 -0.70275,1.4548 -0.1144,-0.2888 -0.76919,1.5161 -0.22018,-0.3753 -0.27258,1.02 -0.23824,-0.04 0.41891,-1.1056 h -0.18879 l 0.48869,-1.1364 h -0.21746 l 0.4399,-1.2792 h -0.31389 l 0.24435,-1.398 h -0.20009 l 0.46451,-1.3497 h -0.39744 l 0.36675,-1.3502 -0.37262,-2e-4 0.14747,-1.141 -0.27395,0.1103 0.20347,-1.2586 -0.30984,0.1503 0.0607,-1.0353 h -0.18606 l 0.0979,-1.1605 h -0.25632 l -0.0321,-1.5123 -0.25181,0.2095 -0.1425,-0.9139 -0.1705,0.1078 -0.2274,-1.8735 -0.17007,0.3707 -0.15854,-0.7528 -0.16757,0.1629 -0.62598,-3.0703 -0.62506,3.0703 -0.16733,-0.1629 -0.15855,0.7528 -0.17005,-0.3707 -0.22741,1.8735 -0.17051,-0.1078 -0.14251,0.9139 -0.25179,-0.2095 -0.0321,1.5123 h -0.25629 l 0.0979,1.1605 h -0.18675 l 0.061,1.0349 -0.30938,-0.1501 0.203,1.258 -0.27256,-0.1103 0.14664,1.1412 h -0.37374 l 0.36676,1.3502 h -0.39746 l 0.46385,1.3497 h -0.19875 l 0.24435,1.398 h -0.31346 l 0.43925,1.2792 h -0.21771 l 0.4887,1.1364 h -0.18857 l 0.41822,1.1056 -0.15193,0.026 -0.2676,-1.004 -0.22042,0.3745 -0.76848,-1.5161 -0.11468,0.2894 -0.70299,-1.4567 -0.11857,0.2877 -0.60522,-1.5001 -0.22493,0.3818 -1.05258,-2.1498 v 0.5739 l -0.49592,-0.8618 -0.10524,0.4278 -0.48462,-0.9588 -0.16217,0.3407 -0.69941,-1.2477 -0.11968,0.4493 -0.93811,-1.411 v 0.5179 l -0.95256,-0.9945 v 0.3751 l -0.97692,-0.9473 v 0.3147 l -0.95255,-1.0658 v 0.4636 l -2.54869,-1.8446 1.56699,2.6327 -0.48416,0.094 0.99474,0.9647 -0.17749,0.086 0.52754,0.7953 -0.32609,0.07 0.74027,0.9783 -0.33941,0.099 0.60362,0.7524 -0.4948,0.04 0.99795,0.9689 -0.26852,0.1305 0.94536,0.884 -0.29878,0.1824 0.60361,0.4652 -0.34866,0.036 0.89857,0.6484 -0.33153,0.1207 1.11878,0.6595 -0.45256,0.08 1.47962,0.7491 -0.28701,0.1993 0.911,0.347 -0.16466,0.1136 0.98956,0.512 -0.20618,0.1504 -0.41326,-0.3771 v 0.4758 l -1.04177,-0.6159 v 0.3707 l -1.15623,-0.6318 v 0.4038 l -1.12417,-0.4107 v 0.4048 l -1.33508,-0.363 v 0.3569 l -1.74609,-0.2332 0.1899,0.2627 -1.05124,-0.1076 0.20369,0.3694 -2.94412,0.4022 2.79781,0.7031 -0.47469,0.2505 1.4146,0.143 -0.2464,0.1837 1.00495,0.1806 -0.29198,0.2584 1.12461,0.2045 -0.26265,0.2083 1.24366,0.2362 -0.41237,0.3247 1.39246,0.2252 -0.51669,0.3531 1.82447,0.1279 -0.55755,0.455 1.58912,-0.1646 -0.22762,0.2428 1.6537,-0.1407 -0.18021,0.3505 1.39424,-0.338 0.0629,0.043 -0.0276,0.057 -1.28516,0.2279 0.43315,0.2798 -1.509,0.5304 0.41755,0.1618 -0.93377,0.5152 0.30916,0.1249 -3.01142,2.3607 3.62388,-1.2751 -0.0215,0.3421 0.88233,-0.4596 -0.0219,0.3746 0.92452,-0.6265 v 0.3661 l 0.77999,-0.5782 -0.0475,0.3847 1.29153,-0.9391 0.0636,0.3926 1.88044,-1.794 c 0.0139,1.6422 0.0895,3.5468 0.35929,4.1069 0.088,0.1818 0.27844,0.2993 0.48552,0.2993 0.079,0 0.15574,-0.016 0.2256,-0.048 0.26694,-0.1194 0.38436,-0.4285 0.26106,-0.6915 -0.13904,-0.2884 -0.24299,-1.8104 -0.25926,-3.7513 l 1.9674,1.8779 0.0641,-0.3922 1.29219,0.94 -0.0476,-0.3856 0.78069,0.5783 v -0.3659 l 0.92452,0.6265 -0.0219,-0.3747 0.88366,0.4603 -0.0222,-0.3422 3.62248,1.2741 -3.01141,-2.3607 0.30801,-0.1245 -0.93244,-0.5146 0.41779,-0.1618 -1.50901,-0.5303 0.43314,-0.2803 -1.28678,-0.2279 -0.0267,-0.056 0.0643,-0.045 1.3927,0.3376 -0.18022,-0.3505 1.65146,0.1407 -0.22697,-0.2428 1.58804,0.1646 -0.55576,-0.4545 1.82489,-0.1285 -0.51669,-0.3531 1.39378,-0.2254 -0.41305,-0.3247 1.24296,-0.2362 -0.26264,-0.2083 1.12352,-0.2043 -0.29132,-0.2583 1.00605,-0.1807 -0.24684,-0.1841 1.41235,-0.1429 z m -11.95606,-0.1036 0.25315,0.2708 0.27641,-1.0355 0.0248,0.043 0.6486,-1.2785 0.12939,0.3267 0.71542,-1.4813 0.17456,0.4232 0.71386,-1.7684 0.16483,0.281 0.31593,-0.6446 v 0.1841 l 0.91979,-1.5995 0.13869,0.5671 0.68899,-1.3637 0.1305,0.275 0.52233,-0.9312 0.0764,0.2864 0.62326,-0.9374 0.85678,-0.8945 v 0.2877 l 0.9769,-0.9472 v 0.4907 l 0.95257,-1.0657 v 0.011 l 0.98482,-0.7132 -0.38707,0.6509 0.1669,0.032 -0.76397,0.7406 0.34482,0.1666 -0.64472,0.9729 0.25991,0.056 -0.69372,0.917 0.31208,0.091 -0.76467,0.9527 0.28589,0.023 -0.62894,0.6098 0.25181,0.1221 -0.87759,0.8207 0.22155,0.1351 -1.15623,0.8905 0.27165,0.028 -0.50155,0.3622 0.18856,0.068 -1.45409,0.8564 0.26423,0.047 -0.703,0.3558 0.16893,0.1168 -0.91187,0.3473 0.29178,0.2019 -0.96588,0.4992 0.18633,0.1352 -1.25946,0.4458 0.24707,0.1537 -1.4105,0.5402 0.35432,0.1719 -0.90624,0.4712 0.23553,0.1037 -1.15601,0.7172 z m 4.08699,-0.6792 -0.37802,0.3446 -0.0755,-0.1844 z m -12.34744,-1.5203 0.16826,-0.1169 -0.70229,-0.3558 0.26331,-0.047 -1.45322,-0.8563 0.18924,-0.069 -0.50158,-0.3618 -4.5e-4,-4e-4 0.27032,-0.027 -1.1549,-0.8901 0.22155,-0.1351 -0.87823,-0.8211 0.2518,-0.122 -0.62917,-0.6107 0.28521,-0.023 -0.76282,-0.9527 0.31142,-0.091 -0.69351,-0.9166 0.26105,-0.056 -0.64543,-0.9731 0.34462,-0.1666 -0.76373,-0.7408 0.16665,-0.032 -0.38751,-0.6511 0.98596,0.7134 v -0.01 l 0.95258,1.0657 v -0.4912 l 0.97689,0.9472 v -0.2877 l 0.85678,0.8945 0.62326,0.9374 0.0764,-0.2858 0.52144,0.9309 0.13078,-0.2753 0.68829,1.3624 0.13986,-0.5671 0.92051,1.6013 v -0.1842 l 0.31592,0.6447 0.16483,-0.281 0.71385,1.7684 0.17457,-0.423 0.71361,1.4797 0.13009,-0.3265 0.6479,1.2786 0.0254,-0.043 0.27595,1.0365 0.25429,-0.2708 0.84641,1.5896 -1.15738,-0.718 0.23553,-0.1036 -0.90626,-0.4712 0.35432,-0.1719 -1.41008,-0.5402 0.24749,-0.1537 -1.26011,-0.4461 0.18563,-0.1351 -0.96453,-0.4986 0.29178,-0.2023 z m 0.81684,1.6807 -0.0764,0.1848 -0.37894,-0.3459 z m 1.02368,3.0727 0.0634,-0.1227 -1.13115,0.096 0.26105,-0.2786 -1.15466,0.1194 0.13508,-0.1101 -1.59524,-0.1117 0.31411,-0.215 -1.53899,-0.2486 0.369,-0.291 -1.24841,-0.2371 0.27507,-0.2181 -1.22104,-0.2218 0.29471,-0.2608 -0.85072,-0.1531 0.38889,-0.2897 -0.93066,-0.094 0.0635,-0.033 -1.15964,-0.2914 0.52505,-0.072 -0.0573,-0.1034 1.26082,0.1292 -0.15243,-0.211 0.97332,0.1303 v -0.2433 l 1.33511,0.363 v -0.3214 l 1.12415,0.4108 v -0.228 l 1.15624,0.6318 9e-4,-0.3258 1.04176,0.6159 v -0.1238 l 0.62015,0.566 0.13509,-0.3274 1.05373,0.9158 0.0607,-0.3979 1.07766,1.0105 v -0.564 l 1.98978,1.014 -2.25871,0.2036 0.22221,-0.4615 z m 2.52111,1.5611 -0.0336,-0.2072 -0.92366,0.6714 0.0497,-0.4049 -0.96654,0.7165 v -0.2972 l -0.84573,0.5733 0.0111,-0.194 -0.87622,0.4568 0.01,-0.1632 -0.77322,0.272 0.73439,-0.5759 -0.0822,-0.033 0.9566,-0.5272 -0.0712,-0.027 1.09641,-0.3856 -0.15374,-0.099 1.29733,-0.23 -0.0995,-0.069 0.61107,-0.036 -0.11371,-0.2402 1.17744,-0.1585 z m 2.54302,-3.7673 -0.5939,1.5676 -0.59436,-1.5676 h 0.29334 l -0.69305,-1.3287 0.18405,-0.031 -0.36336,-0.9612 h 0.23489 l -0.48871,-1.1364 h 0.14053 l -0.43924,-1.2792 h 0.17523 l -0.24435,-1.3981 h 0.33761 l -0.46385,-1.3496 h 0.33604 l -0.36675,-1.3502 h 0.26128 l -0.097,-0.7536 0.31322,0.1266 -0.18698,-1.1578 0.17885,0.087 -0.0869,-1.4754 h 0.20483 l -0.0979,-1.1605 h 0.18428 l 0.0165,-0.7609 0.0904,0.075 0.16755,-1.0758 0.2037,0.1291 0.0655,-0.5419 0.0254,0.056 0.33017,-1.5689 0.1748,0.1693 0.20436,-1.0039 0.20483,1.0035 0.17456,-0.1693 0.33016,1.5689 0.0254,-0.056 0.0655,0.5419 0.20369,-0.1291 0.16756,1.0757 0.0902,-0.075 0.0165,0.7609 h 0.18426 l -0.0979,1.1605 h 0.20413 l -0.0858,1.4754 0.17864,-0.087 -0.18678,1.1573 0.31324,-0.1262 -0.0976,0.7543 h 0.26128 l -0.36675,1.3502 h 0.33602 l -0.4645,1.3497 h 0.33918 l -0.24436,1.398 h 0.1748 l -0.4399,1.2792 h 0.14068 l -0.48867,1.1364 h 0.23444 l -0.36404,0.9612 0.18497,0.031 -0.69306,1.3287 0.29379,-2e-4 z m 4.25368,4.027 -0.0709,0.028 0.95661,0.5277 -0.0816,0.033 0.73438,0.5758 -0.77573,-0.2728 0.0111,0.1629 -0.87486,-0.4557 0.0111,0.194 -0.84573,-0.5733 v 0.2973 l -0.96718,-0.7159 0.0497,0.4037 -0.92139,-0.6704 -0.0344,0.2075 -1.00541,-0.9595 1.17612,0.1584 -0.1144,0.2402 0.61058,0.036 -0.0995,0.069 1.29943,0.2306 -0.15374,0.099 z m 7.21895,-4.4912 0.0636,0.034 -0.93219,0.094 0.38842,0.2897 -0.84955,0.1526 0.29402,0.2608 -1.22196,0.222 0.27506,0.2181 -1.24903,0.2376 0.36968,0.291 -1.53901,0.2485 0.31413,0.215 -1.59323,0.1115 0.13509,0.1102 -1.15423,-0.1194 0.26039,0.2785 -1.13208,-0.096 0.0635,0.1228 -1.4401,-0.349 0.22154,0.4613 -2.25917,-0.2036 1.98885,-1.014 v 0.5634 l 1.07719,-1.0099 0.0604,0.3978 1.0539,-0.9157 0.13509,0.3274 0.62079,-0.5667 v 0.1239 l 1.0424,-0.616 v 0.3246 l 1.15624,-0.6318 v 0.2279 l 1.1235,-0.4107 v 0.3212 l 1.33575,-0.3631 v 0.2433 l 0.97331,-0.1303 -0.15242,0.2111 1.26169,-0.1293 -0.0569,0.1038 0.52413,0.072 z"
         id="path70"
         style="fill:url(#linearGradient876);fill-opacity:1;stroke-width:0.0569265" />
    </g>
  </g>
</svg>
