<?xml version="1.0" encoding="UTF-8" standalone="no"?>
<svg
   width="64"
   version="1.1"
   height="64"
   id="svg15"
   sodipodi:docname="folder-Relax.svg"
   inkscape:version="1.1.2 (0a00cf5339, 2022-02-04)"
   xmlns:inkscape="http://www.inkscape.org/namespaces/inkscape"
   xmlns:sodipodi="http://sodipodi.sourceforge.net/DTD/sodipodi-0.dtd"
   xmlns:xlink="http://www.w3.org/1999/xlink"
   xmlns="http://www.w3.org/2000/svg"
   xmlns:svg="http://www.w3.org/2000/svg"
   xmlns:rdf="http://www.w3.org/1999/02/22-rdf-syntax-ns#"
   xmlns:cc="http://creativecommons.org/ns#"
   xmlns:dc="http://purl.org/dc/elements/1.1/">
  <sodipodi:namedview
     pagecolor="#ffffff"
     bordercolor="#666666"
     borderopacity="1"
     objecttolerance="10"
     gridtolerance="10"
     guidetolerance="10"
     inkscape:pageopacity="0"
     inkscape:pageshadow="2"
     inkscape:window-width="1920"
     inkscape:window-height="1015"
     id="namedview17"
     showgrid="false"
     inkscape:zoom="3.4692426"
     inkscape:cx="-1.4412368"
     inkscape:cy="26.951128"
     inkscape:window-x="0"
     inkscape:window-y="0"
     inkscape:window-maximized="1"
     inkscape:current-layer="layer1"
     inkscape:pagecheckerboard="0" />
  <defs
     id="defs5455">
    <linearGradient
       inkscape:collect="always"
       id="linearGradient948">
      <stop
         style="stop-color:#008080;stop-opacity:1"
         offset="0"
         id="stop942" />
      <stop
         style="stop-color:#20ffff;stop-opacity:0.80000001"
         offset="0.50507295"
         id="stop944" />
      <stop
         style="stop-color:#008080;stop-opacity:1"
         offset="1"
         id="stop946" />
    </linearGradient>
    <linearGradient
       id="linearGradient4194">
      <stop
         style="stop-color:#b5006a"
         id="stop4196" />
      <stop
         offset="1"
         style="stop-color:#c70073"
         id="stop4198" />
    </linearGradient>
    <linearGradient
       inkscape:collect="always"
       xlink:href="#linearGradient2230"
       id="linearGradient2232"
       x1="384.57144"
       y1="515.79797"
       x2="448.57144"
       y2="515.79797"
       gradientUnits="userSpaceOnUse"
       gradientTransform="translate(1.8600002e-6)" />
    <linearGradient
       inkscape:collect="always"
       id="linearGradient2230">
      <stop
         style="stop-color:#4e99ca;stop-opacity:0.80000001"
         offset="0"
         id="stop2226" />
      <stop
         style="stop-color:#20ffff;stop-opacity:0.80000001"
         offset="0.50507295"
         id="stop2332" />
      <stop
         style="stop-color:#ffaeff;stop-opacity:0.69"
         offset="1"
         id="stop2228" />
    </linearGradient>
    <linearGradient
       inkscape:collect="always"
       xlink:href="#linearGradient948"
       id="linearGradient876"
       x1="423.30508"
       y1="527.63239"
       x2="443.45984"
       y2="527.63239"
       gradientUnits="userSpaceOnUse"
       gradientTransform="matrix(1.1907845,0,0,1.1907845,-84.218125,-101.96358)" />
  </defs>
  <metadata
     id="metadata5458">
    <rdf:RDF>
      <cc:Work
         rdf:about="">
        <dc:format>image/svg+xml</dc:format>
        <dc:type
           rdf:resource="http://purl.org/dc/dcmitype/StillImage" />
      </cc:Work>
    </rdf:RDF>
  </metadata>
  <g
     inkscape:label="Capa 1"
     inkscape:groupmode="layer"
     id="layer1"
     transform="translate(-384.57143,-483.798)">
    <rect
       style="fill:#626f9d;fill-opacity:0.2;stroke:none;stroke-width:1.26075"
       id="center-3"
       width="60.099998"
       height="42"
       x="386.57141"
       y="497.79794"
       ry="3.9999959"
       rx="4.0066781" />
    <path
       d="m 442.73835,495.80768 h -29.32672 c -0.64817,0 -1.21496,-0.33361 -1.62011,-0.91817 l -2.1875,-3.33839 c -0.72899,-1.16852 -1.94446,-1.75312 -3.24023,-1.75312 h -14.98741 c -3.72689,0 -6.80495,3.17192 -6.80495,7.01111 v 38.97924 c 0,3.25524 2.59271,6.00966 5.83294,6.00966 h 25.19505 v 0 0 0 0 0 0 0 h 1.94402 v 0 0 0 0 0 0 0 0 0 h 25.19505 c 3.15951,0 5.83294,-2.67126 5.83294,-6.00966 v -33.9712 c 0,-3.33839 -2.59213,-6.00905 -5.83294,-6.00905 z m -25.19491,45.99033 v 0 h -1.94402 v 0 0 z m 29.08353,-6.00947 c 0,2.16999 -1.70156,4.00628 -3.88848,4.00628 h -52.33441 c -2.1062,0 -3.88848,-1.83629 -3.88848,-4.00628 l -5.8e-4,-13.43824 v -7.59568 c 0,-2.17001 1.78229,-4.00628 3.88848,-4.00628 h 29.32671 c 1.29634,0 2.51126,-0.66782 3.24024,-1.75312 l 2.10619,-3.33839 c 0.40518,-0.50072 0.97198,-0.91818 1.62012,-0.91818 h 15.06842 c 2.67343,0 4.86107,2.25378 4.86107,5.00835 v 10.93407 z m -4.86107,-32.9696 h -15.06842 c -1.29634,0 -2.51126,0.66781 -3.24023,1.75311 l -2.1062,3.3384 c -0.3238,0.58455 -0.97198,0.91816 -1.62011,0.91816 h -29.32651 c -1.45794,0 -2.83331,0.16967 -3.889,1.70239 v -8.733 c 0,-2 2.05601,-4 4.05601,-4 h 16.00001 l 0.0429,0.0464 2.9571,-0.0464 3.92107,0.0125 h 29.32672 c 2.10619,0 3.88848,1.83628 3.88848,4.00629 v 3.08814 c -1.29578,-1.33503 -2.99676,-2.08609 -4.94122,-2.08609 z"
       id="path64"
       sodipodi:nodetypes="csccsssssccccccccccccccccccsssccccccccccssccsssccssscccsccscccccccssscc"
       style="fill:url(#linearGradient2232);fill-opacity:1;stroke-width:0.146841" />
    <path
       d="m 441.83086,531.10999 2.01614,-0.52263 -2.1212,-0.29897 0.14607,-0.27424 -0.7557,0.08 0.1368,-0.19519 -1.25767,0.17323 v -0.26481 l -0.96211,0.26968 v -0.30091 l -0.80923,0.30515 v -0.29995 l -0.83281,0.46928 v -0.27521 l -0.75083,0.45754 v -0.35378 l -0.29717,0.27961 -0.14851,-0.11122 0.71277,-0.37997 -0.11861,-0.0848 0.65682,-0.25797 -0.20724,-0.14803 1.06608,-0.55643 -0.32646,-0.0594 0.80613,-0.48995 -0.23928,-0.0895 0.64655,-0.48162 -0.25033,-0.0262 0.43477,-0.34565 -0.2152,-0.1355 0.68042,-0.65679 -0.1934,-0.0968 0.71975,-0.71976 -0.35687,-0.0299 0.43477,-0.55891 -0.24497,-0.0732 0.53288,-0.72658 -0.23472,-0.052 0.37948,-0.59109 -0.12769,-0.0636 0.71718,-0.71702 -0.34955,-0.0698 1.12883,-1.95615 -1.83559,1.37039 -4.9e-4,-0.34353 -0.68611,0.79167 v -0.23374 l -0.70364,0.70364 v -0.27863 l -0.68562,0.73895 v -0.38469 l -0.6757,1.04818 -0.0862,-0.3333 -0.50394,0.92685 -0.11706,-0.25359 -0.34827,0.71114 -0.0756,-0.31784 -0.35768,0.64168 v -0.42631 l -0.75816,1.597 -0.16199,-0.28367 -0.43594,1.11438 -0.0854,-0.21326 -0.50618,1.0807 -0.0824,-0.21454 -0.55403,1.12625 -0.15859,-0.2788 -0.19633,0.75765 -0.1716,-0.0298 0.30173,-0.82127 h -0.13598 l 0.35199,-0.84417 h -0.15663 l 0.31685,-0.95025 h -0.22609 l 0.176,-1.03855 h -0.14412 l 0.33458,-1.00263 h -0.28627 l 0.26416,-1.00295 -0.26839,-1.5e-4 0.10622,-0.8476 -0.19732,0.0819 0.14656,-0.93495 -0.22317,0.11169 0.0437,-0.76906 h -0.13402 l 0.0705,-0.86209 h -0.18462 l -0.0231,-1.12346 -0.18137,0.15568 -0.10264,-0.67895 -0.12281,0.0801 -0.16379,-1.39172 -0.1225,0.27538 -0.11419,-0.55923 -0.1207,0.12102 -0.45088,-2.28078 -0.45021,2.28078 -0.12053,-0.12102 -0.1142,0.55923 -0.12248,-0.27538 -0.1638,1.39172 -0.12281,-0.0801 -0.10265,0.67895 -0.18136,-0.15568 -0.0231,1.12346 h -0.1846 l 0.0705,0.86209 h -0.13451 l 0.0439,0.76873 -0.22284,-0.11146 0.14622,0.93446 -0.19632,-0.0819 0.10562,0.84776 h -0.2692 l 0.26417,1.00296 h -0.28628 l 0.3341,1.00261 h -0.14315 l 0.176,1.03856 h -0.22578 l 0.31638,0.95023 h -0.15681 l 0.352,0.84419 h -0.13582 l 0.30123,0.82127 -0.10943,0.0192 -0.19275,-0.74578 -0.15876,0.27816 -0.55352,-1.12626 -0.0826,0.21505 -0.50635,-1.08216 -0.0854,0.21373 -0.43593,-1.11438 -0.16201,0.28366 -0.75815,-1.59699 v 0.42631 l -0.3572,-0.64021 -0.0758,0.31783 -0.34906,-0.71227 -0.11681,0.2531 -0.50377,-0.92683 -0.0862,0.33377 -0.6757,-1.04817 v 0.38469 l -0.68611,-0.73878 v 0.27863 l -0.70365,-0.70365 v 0.23374 l -0.68611,-0.79167 v 0.34435 l -1.83577,-1.37022 1.12867,1.95565 -0.34873,0.0698 0.71649,0.71668 -0.12784,0.0637 0.37997,0.59078 -0.23487,0.052 0.5332,0.72675 -0.24447,0.0732 0.43477,0.55891 -0.35639,0.0299 0.7188,0.71976 -0.19341,0.0969 0.68092,0.65667 -0.2152,0.1355 0.43476,0.34564 -0.25113,0.0266 0.64722,0.48161 -0.23879,0.0897 0.80583,0.48993 -0.32597,0.0594 1.06574,0.55645 -0.20673,0.14801 0.65617,0.25782 -0.1186,0.0844 0.71276,0.3803 -0.14851,0.1117 -0.29766,-0.28011 v 0.35346 l -0.75036,-0.45754 v 0.27538 l -0.83281,-0.46929 v 0.29994 l -0.80971,-0.30512 v 0.30074 l -0.96163,-0.26967 v 0.26512 l -1.25767,-0.17323 0.13678,0.19519 -0.75718,-0.08 0.14671,0.27441 -2.12058,0.2988 2.0152,0.5223 -0.34191,0.18608 1.0189,0.10622 -0.17747,0.13647 0.72384,0.1342 -0.21031,0.19194 0.81003,0.15192 -0.18918,0.15468 0.89578,0.17551 -0.29702,0.24122 1.00296,0.16722 -0.37216,0.26236 1.31412,0.095 -0.40159,0.33802 1.14461,-0.12232 -0.16395,0.18038 1.19112,-0.10455 -0.1298,0.26042 1.00424,-0.25114 0.0453,0.0323 -0.0199,0.0424 -0.92567,0.16933 0.31199,0.20787 -1.0869,0.39396 0.30075,0.1202 -0.67257,0.38274 0.22268,0.0928 -2.16906,1.7536 2.6102,-0.94715 -0.0155,0.25407 0.63552,-0.34141 -0.0158,0.27831 0.66591,-0.46539 v 0.27197 l 0.56181,-0.42957 -0.0342,0.2858 0.93026,-0.69764 0.0458,0.29165 1.35444,-1.33267 c 0.01,1.21993 0.0645,2.63472 0.25879,3.05082 0.0634,0.13502 0.20055,0.22236 0.34971,0.22236 0.0569,0 0.11217,-0.0123 0.16249,-0.0358 0.19227,-0.0887 0.27685,-0.31834 0.18804,-0.51368 -0.10015,-0.21423 -0.17502,-1.34488 -0.18674,-2.78668 l 1.41707,1.39496 0.0462,-0.29131 0.93074,0.6983 -0.0343,-0.28644 0.56231,0.42957 v -0.27181 l 0.66591,0.46538 -0.0158,-0.27831 0.63648,0.34191 -0.016,-0.25423 2.60919,0.94648 -2.16905,-1.75361 0.22185,-0.0925 -0.67161,-0.38225 0.30092,-0.1202 -1.0869,-0.39396 0.31198,-0.20821 -0.92684,-0.16932 -0.0192,-0.0413 0.0463,-0.0332 1.00313,0.25081 -0.12981,-0.26041 1.18951,0.10455 -0.16348,-0.18039 1.14383,0.12232 -0.4003,-0.33767 1.31442,-0.0954 -0.37216,-0.26236 1.00391,-0.16739 -0.29751,-0.24121 0.89528,-0.1755 -0.18918,-0.1547 0.80925,-0.15175 -0.20983,-0.19194 0.72463,-0.1342 -0.17779,-0.13679 1.01728,-0.1061 z m -8.61168,-0.077 0.18234,0.20121 0.19909,-0.76924 0.0179,0.0317 0.46717,-0.94976 0.0932,0.24267 0.5153,-1.10038 0.12573,0.31441 0.51418,-1.31364 0.11872,0.2087 0.22756,-0.47886 v 0.13678 l 0.6625,-1.18821 0.0999,0.42128 0.49626,-1.01303 0.094,0.20429 0.37622,-0.69176 0.055,0.21275 0.44892,-0.69635 0.61712,-0.66446 v 0.21372 l 0.70364,-0.70363 v 0.36451 l 0.68611,-0.79166 v 0.008 l 0.70935,-0.52979 -0.2788,0.48356 0.12021,0.024 -0.55027,0.55012 0.24837,0.12379 -0.46438,0.72267 0.18721,0.0414 -0.49967,0.68119 0.22478,0.0672 -0.55077,0.70773 0.20592,0.0173 -0.45301,0.45299 0.18137,0.0907 -0.63211,0.60966 0.15958,0.10038 -0.83281,0.66154 0.19567,0.0206 -0.36126,0.26904 0.13582,0.0507 -1.04735,0.63615 0.19032,0.0346 -0.50636,0.26432 0.12168,0.0868 -0.6568,0.25797 0.21016,0.14998 -0.6957,0.37084 0.13421,0.10039 -0.90716,0.33117 0.17796,0.11419 -1.01595,0.40127 0.25521,0.1277 -0.65275,0.35003 0.16965,0.0771 -0.83265,0.53271 z m 2.94377,-0.50456 -0.27228,0.25602 -0.0544,-0.13695 z m -8.89358,-1.12934 0.12119,-0.0868 -0.50584,-0.26432 0.18965,-0.0346 -1.04672,-0.63614 0.13631,-0.0511 -0.36128,-0.2687 -3.2e-4,-3.4e-4 0.1947,-0.0204 -0.83185,-0.66121 0.15958,-0.10038 -0.63257,-0.60996 0.18137,-0.0906 -0.45318,-0.45366 0.20543,-0.0173 -0.54944,-0.70772 0.22431,-0.0672 -0.49952,-0.68089 0.18803,-0.0414 -0.46489,-0.72284 0.24822,-0.12378 -0.5501,-0.55029 0.12004,-0.024 -0.27912,-0.48373 0.71017,0.52995 v -0.007 l 0.68612,0.79166 v -0.36451 l 0.70363,0.70363 v -0.21373 l 0.61712,0.66447 0.44892,0.69634 0.055,-0.21227 0.37558,0.69146 0.0942,-0.20447 0.49576,1.01207 0.10074,-0.42128 0.66302,1.1895 v -0.1368 l 0.22755,0.47888 0.11872,-0.2087 0.51417,1.31364 0.12574,-0.31426 0.514,1.09922 0.0937,-0.24252 0.46667,0.94978 0.0183,-0.0323 0.19876,0.77001 0.18316,-0.2012 0.60965,1.18088 -0.83364,-0.53338 0.16965,-0.077 -0.65276,-0.35004 0.25521,-0.12769 -1.01565,-0.40127 0.17826,-0.1142 -0.90763,-0.33132 0.13371,-0.10038 -0.69473,-0.37037 0.21016,-0.15029 z m 0.58835,1.24855 -0.055,0.13728 -0.27294,-0.25699 z m 0.73733,2.28257 0.0457,-0.0912 -0.81474,0.0717 0.18803,-0.20691 -0.83168,0.0887 0.0973,-0.0818 -1.14902,-0.083 0.22625,-0.15973 -1.1085,-0.18462 0.26578,-0.21617 -0.8992,-0.17615 0.19813,-0.16201 -0.87949,-0.16478 0.21227,-0.19372 -0.61275,-0.11372 0.28011,-0.2152 -0.67034,-0.0698 0.0457,-0.0248 -0.83526,-0.21651 0.37818,-0.0532 -0.0413,-0.0768 0.90814,0.096 -0.10979,-0.1568 0.70106,0.0968 v -0.1807 l 0.96165,0.26967 v -0.23877 l 0.8097,0.30515 v -0.16933 l 0.83281,0.46929 6.4e-4,-0.24204 0.75036,0.45755 v -0.092 l 0.44668,0.42048 0.0973,-0.24317 0.75898,0.68024 0.0437,-0.29555 0.77621,0.75066 v -0.41899 l 1.4332,0.75328 -1.6269,0.15126 0.16005,-0.34288 z m 1.8159,1.15961 -0.0242,-0.15388 -0.66529,0.49873 0.0358,-0.30076 -0.69618,0.53221 v -0.22072 l -0.60916,0.42586 0.008,-0.14412 -0.63112,0.3393 0.007,-0.12119 -0.55693,0.20203 0.52896,-0.42778 -0.0592,-0.0248 0.68902,-0.39168 -0.0513,-0.0204 0.78972,-0.28643 -0.11074,-0.0737 0.93444,-0.1708 -0.0717,-0.0512 0.44014,-0.0266 -0.0819,-0.17844 0.84808,-0.11776 z m 1.83168,-2.79854 -0.42777,1.16448 -0.42811,-1.16448 h 0.21129 l -0.49919,-0.987 0.13257,-0.0228 -0.26172,-0.71405 h 0.16918 l -0.352,-0.84417 h 0.10122 l -0.31638,-0.95025 h 0.12622 l -0.176,-1.03855 h 0.24317 l -0.3341,-1.00262 h 0.24204 l -0.26416,-1.00295 h 0.18819 l -0.0699,-0.55986 0.22561,0.0941 -0.13468,-0.86013 0.12882,0.0645 -0.0626,-1.09597 h 0.14754 l -0.0705,-0.86209 h 0.13273 l 0.0119,-0.56522 0.0651,0.0558 0.12068,-0.79913 0.14672,0.0959 0.0472,-0.40258 0.0183,0.0413 0.23782,-1.16543 0.1259,0.12574 0.1472,-0.74579 0.14753,0.74545 0.12573,-0.12573 0.23781,1.16543 0.0183,-0.0413 0.0472,0.40258 0.14671,-0.0959 0.12069,0.79911 0.065,-0.0558 0.0119,0.56523 h 0.13272 l -0.0705,0.86208 h 0.14703 l -0.0618,1.09597 0.12867,-0.0643 -0.13453,0.85967 0.22562,-0.0937 -0.0703,0.56034 h 0.18819 l -0.26416,1.00297 h 0.24203 l -0.33457,1.00261 h 0.2443 l -0.176,1.03856 h 0.1259 l -0.31685,0.95024 h 0.10133 l -0.35198,0.84418 h 0.16886 l -0.26221,0.71405 0.13323,0.0231 -0.49919,0.98699 0.21161,-1.5e-4 z m 3.06383,2.99145 -0.0511,0.0204 0.68902,0.392 -0.0588,0.0248 0.52896,0.42778 -0.55874,-0.20267 0.008,0.12102 -0.63014,-0.3385 0.008,0.14411 -0.60916,-0.42585 v 0.22088 l -0.69664,-0.53186 0.0358,0.29993 -0.66366,-0.49805 -0.0248,0.15419 -0.72417,-0.71275 0.84713,0.11764 -0.0824,0.17844 0.43979,0.0266 -0.0717,0.0511 0.93595,0.17129 -0.11074,0.0737 z m 5.19964,-3.33628 0.0458,0.0251 -0.67144,0.0699 0.27977,0.2152 -0.61191,0.11336 0.21178,0.19373 -0.88015,0.16493 0.19812,0.16201 -0.89965,0.17649 0.26627,0.21617 -1.10851,0.18461 0.22626,0.15973 -1.14757,0.0828 0.0973,0.0819 -0.83136,-0.0887 0.18755,0.2069 -0.81541,-0.0717 0.0457,0.0912 -1.03727,-0.25927 0.15957,0.34272 -1.62723,-0.15126 1.43252,-0.7533 v 0.41853 l 0.77588,-0.75018 0.0435,0.29554 0.7591,-0.68024 0.0973,0.24317 0.44714,-0.42094 v 0.092 l 0.75082,-0.45754 v 0.24107 l 0.83281,-0.4693 v 0.16932 l 0.80923,-0.30515 v 0.23864 l 0.96211,-0.2697 v 0.18071 l 0.70106,-0.0968 -0.10979,0.1568 0.90877,-0.096 -0.041,0.0771 0.37752,0.0532 z"
       id="path70"
       style="fill:url(#linearGradient876);fill-opacity:1;stroke-width:0.0416405" />
  </g>
</svg>
