<?xml version="1.0" encoding="UTF-8" standalone="no"?>
<svg
   height="48"
   width="48"
   version="1.1"
   id="svg41"
   sodipodi:docname="ubiquity-kde.svg"
   inkscape:version="1.1.2 (0a00cf5339, 2022-02-04)"
   xmlns:inkscape="http://www.inkscape.org/namespaces/inkscape"
   xmlns:sodipodi="http://sodipodi.sourceforge.net/DTD/sodipodi-0.dtd"
   xmlns:xlink="http://www.w3.org/1999/xlink"
   xmlns="http://www.w3.org/2000/svg"
   xmlns:svg="http://www.w3.org/2000/svg">
  <defs
     id="defs45" />
  <sodipodi:namedview
     id="namedview43"
     pagecolor="#ffffff"
     bordercolor="#666666"
     borderopacity="1.0"
     inkscape:pageshadow="2"
     inkscape:pageopacity="0.0"
     inkscape:pagecheckerboard="0"
     showgrid="true"
     inkscape:zoom="12.958333"
     inkscape:cx="24"
     inkscape:cy="23.961415"
     inkscape:window-width="1920"
     inkscape:window-height="1015"
     inkscape:window-x="0"
     inkscape:window-y="0"
     inkscape:window-maximized="1"
     inkscape:current-layer="svg41">
    <inkscape:grid
       type="xygrid"
       id="grid961" />
  </sodipodi:namedview>
  <linearGradient
     id="c"
     gradientUnits="userSpaceOnUse"
     x1="10"
     x2="34"
     xlink:href="#a"
     y1="10"
     y2="34" />
  <linearGradient
     id="d"
     gradientTransform="translate(384.57 499.8)"
     gradientUnits="userSpaceOnUse"
     x2="0"
     y1="20"
     y2="44">
    <stop
       offset="0"
       stop-color="#eff0f1"
       id="stop3" />
    <stop
       offset="1"
       stop-color="#bdc3c7"
       id="stop5" />
  </linearGradient>
  <linearGradient
     id="a"
     gradientTransform="translate(384.57 500.8)"
     gradientUnits="userSpaceOnUse"
     x1="10"
     x2="15"
     y1="36"
     y2="41">
    <stop
       offset="0"
       stop-color="#292c2f"
       id="stop8" />
    <stop
       offset="1"
       stop-opacity="0"
       id="stop10" />
  </linearGradient>
  <linearGradient
     id="e"
     gradientTransform="translate(398.67 500.8)"
     gradientUnits="userSpaceOnUse"
     x1="9.905"
     x2="14.905"
     xlink:href="#a"
     y1="36"
     y2="41" />
  <linearGradient
     id="b"
     gradientTransform="matrix(1 0 0 1.08333 384.57 492.96)"
     gradientUnits="userSpaceOnUse"
     x1="25.07"
     x2="25"
     y1="33.844"
     y2="10">
    <stop
       offset="0"
       stop-color="#1abc9c"
       id="stop14" />
    <stop
       offset="1"
       stop-color="#2980b9"
       id="stop16" />
  </linearGradient>
  <path
     d="m 392.57,507.8 c 0,-2 2,-4 3.85587,-4 h 24.17586 c 1.96827,0 3.96827,2 3.96827,4 v 22 h -32 z"
     fill="url(#b)"
     transform="translate(-384.57,-499.8)"
     id="path19"
     sodipodi:nodetypes="ccccccc" />
  <path
     d="M25 10l15 15v5h4-14l-6-6z"
     fill="url(#c)"
     opacity=".2"
     id="path21" />
  <path
     d="M24 34c-1.662 0-3 1.338-3 3s1.338 3 3 3a2.993 2.993 0 0 0 2.813-2h8.375a2.99 2.99 0 0 0 5.813-1c0-1.662-1.338-3-3-3a2.993 2.993 0 0 0-2.813 2h-8.375A2.99 2.99 0 0 0 24 34"
     fill="#232629"
     opacity=".2"
     id="path23" />
  <path
     d="M388.57 529.8v14h40v-14z"
     fill="url(#d)"
     transform="translate(-384.57 -499.8)"
     id="path25" />
  <path
     d="M26.81 38h8.375a2.99 2.99 0 0 0 5.813-1c0-1.662-1.338-3-3-3a2.993 2.993 0 0 0-2.813 2H26.81c.188 1 .188 1 0 2"
     fill="#4d4d4d"
     opacity=".779"
     id="path27" />
  <path
     d="M406.67 539.13l4.762 4.667h8.143l-9.143-9.429z"
     fill="url(#e)"
     opacity=".2"
     transform="translate(-384.57 -499.8)"
     id="path29" />
  <path
     d="M392.57 539.13l4.619 4.667h13.381l-4.867-6.937-7.133-.067-2.238-2.425z"
     fill="url(#a)"
     opacity=".2"
     transform="translate(-384.57 -499.8)"
     id="path31" />
  <path
     d="M10 34c-1.662 0-3 1.338-3 3s1.338 3 3 3a2.993 2.993 0 0 0 2.813-2h8.375a2.99 2.99 0 0 0 5.813-1c0-1.662-1.338-3-3-3a2.993 2.993 0 0 0-2.813 2h-8.375A2.99 2.99 0 0 0 10 34"
     fill="#1abc9c"
     id="path33" />
  <path
     d="M4 43h40v1H4z"
     fill="#95a5a6"
     id="path35" />
  <path
     d="M4 30h40v1H4z"
     fill="#eff0f1"
     id="path37" />
  <path
     d="M23 10v10l-4.5-4.5L17 17l7 7 7-7-1.5-1.5L25 20V10z"
     fill="#fcfcfc"
     id="path39" />
</svg>
